<svg width="300" height="300"
    xmlns="http://www.w3.org/2000/svg"
    xmlns:xlink="http://www.w3.org/1999/xlink">
    <!-- conteúdo do elemento SVG -->

    //primeiro desenho
    <rect width="200" height="100" fill="blue" />

    

    <!-- Parte de Trás -->
    <rect x="43.2" y="28" width="30" height="18" fill="#ece5e5" />
    <rect x="60" y="28" rx="2" ry="2" width="28" height="18" fill="#ece5e5" />

    <path fill = "#ece5e5" d="
        M 43.2 28
        Q 66.5 11.5 85 29
    " />

    <!-- Parte da Frente -->
    <rect x="37" y="31" width="8" height="16" fill="#ece5e5"/>
    <rect x="26" y="32" rx="9" ry="9" width="15" height="14" fill="#ece5e5" />
    <rect x="26" y="38" rx="3.5" ry="3.5" width="15" height="8" fill="#ece5e5" />
    <rect x="26" y="38" width="8" height="4" fill="#ece5e5" /> <!--Regularizar a figura -->

    <path fill = "#ece5e5" d="
        M 43.4 27.65
        L 43.4 33
        L 29.3 33
        Q 43 29.5 43.4 27.65

    " />

    <!-- Janela -->
    
    <path fill = "#045151" d="
        M 44 28
        L 80.5 28
        Q 68 15 45.5 28
    " />

    <rect x="45" y="27" rx="3" ry="3" width="36" height="5" fill="#045151" />
    <rect x="68.5" y="21.6" rx="5" ry="5" width="0.2" height="10.5" fill="black" />

    <!-- Luz Dianteira -->
    
    <circle cx="28.7" cy="36.5" r="2" fill="#eed814" />

    <path fill = "yellow" d="
        M 26.7 36
        Q 26 37.5 26 38.5
        L 29 38.5
        Q 33 36.5 30 34.5
        L 28.7 34.5

    " />
    


    <!-- Luz Traseira -->
    <path fill = "red" d="
        M 88 30
        L 85 30
        L 88 35
        
    " />

    <!-- Roda Dianteira -->
    <circle cx="41" cy="46" r="5.5" fill="black" />
    <circle cx="41" cy="46" r="3.4" fill="grey" />

    <rect x="41" y="42.6" rx="5" ry="5" width="0.2" height="6.8" fill="black" />
    <rect x="37.6" y="46" rx="5" ry="5" width="6.8" height="0.2" fill="black" />

    <!-- Roda Traseira -->
    <circle cx="77" cy="46" r="5.5" fill="black" />
    <circle cx="77" cy="46" r="3.4" fill="grey" />

    <rect x="77" y="42.6" rx="5" ry="5" width="0.2" height="6.8" fill="black" />
    <rect x="73.6" y="46" rx="5" ry="5" width="6.8" height="0.2" fill="black" />

    <!-- Espelho Retrovisor -->

    <g id="retrovisor" transform="translate(32,22.1)scale(0.8,0.8)">
        <circle cx="20" cy="10" r="3" fill="#ece5e5" stroke="black"/>
    
        <path fill = "#ece5e5" stroke="black" d="
            M 20 13
            L 14.5 13
            Q 12 11 15 8.5 
            Q 18 7 20 7.2

        " />
    </g>
    
    




</svg>